<svg xmlns="http://www.w3.org/2000/svg" width="1390" height="2900" viewBox="0 0 1390 2900" font-family="Inter, Segoe UI, sans-serif"><rect x="0" y="0" width="1390" height="2900" rx="0" fill="#E8ECE5"/><text x="60" y="72" fill="#215E52" font-size="31" font-weight="700"><tspan x="60" dy="0">trainforge</tspan></text><text x="60" y="117" fill="#142F2C" font-size="43" font-weight="700"><tspan x="60" dy="0">Treinar. Registar. Continuar.</tspan></text><text x="61" y="157" fill="#64736E" font-size="13" font-weight="600"><tspan x="61" dy="0">CONCEITO V0.2 · PROPOSTA PARA REVISÃO · DADOS FICTÍCIOS</tspan></text><text x="60" y="205" fill="#64736E" font-size="13" font-weight="600"><tspan x="60" dy="0">01 / Hoje</tspan></text><g transform="translate(60 225)"><rect x="0" y="0" width="390" height="844" rx="32" fill="#F6F6F1"/><text x="26" y="30" fill="#142F2C" font-size="12" font-weight="600"><tspan x="26" dy="0">9:41</tspan></text><text x="310" y="30" fill="#142F2C" font-size="13" font-weight="400"><tspan x="310" dy="0">●  ▰</tspan></text><rect x="24" y="51" width="34" height="34" rx="11" fill="#215E52"/><path d="M31 61 H45 M38 61 V77" fill="none" stroke="white" stroke-width="3" stroke-linecap="round" stroke-linejoin="round"/><path d="M44 77 V60 H51 M44 68 H50" fill="none" stroke="#D8EB90" stroke-width="3" stroke-linecap="round" stroke-linejoin="round"/><text x="68" y="79" fill="#215E52" font-size="24" font-weight="700"><tspan x="68" dy="0">trainforge</tspan></text><rect x="326" y="52" width="38" height="38" rx="19" fill="#E3E9DF"/><text x="336" y="77" fill="#215E52" font-size="12" font-weight="600"><tspan x="336" dy="0">RG</tspan></text><text x="24" y="130" fill="#142F2C" font-size="28" font-weight="700"><tspan x="24" dy="0">O teu ritmo.</tspan></text><text x="24" y="160" fill="#64736E" font-size="12" font-weight="400"><tspan x="24" dy="0">Quinta, 10 setembro · Bom dia, Richard</tspan></text><rect x="16" y="750" width="358" height="76" rx="26" fill="#FFFFFF"/><rect x="29" y="756" width="56" height="40" rx="18" fill="#D8EB90"/><g transform="translate(43 762) scale(1.1666666666666667)"><g transform="translate(0 0)"><path d="M3 11 L12 3 L21 11 M5 10 V21 H19 V10 M9 21 V14 H15 V21" fill="none" stroke="#215E52" stroke-width="1.8" stroke-linecap="round" stroke-linejoin="round"/></g></g><text x="57" y="813" text-anchor="middle" font-size="11" font-weight="600" fill="#215E52">Hoje</text><g transform="translate(116 778) scale(0.8333333333333334)"><g transform="translate(0 0)"><path d="M5 3 H19 V21 H5 Z M9 8 H15 M9 12 H15 M9 16 H13" fill="none" stroke="#64736E" stroke-width="1.8" stroke-linecap="round" stroke-linejoin="round"/></g></g><g transform="translate(185 778) scale(0.8333333333333334)"><g transform="translate(0 0)"><path d="M2 13 H7 L10 5 L14 20 L17 11 H22" fill="none" stroke="#64736E" stroke-width="1.8" stroke-linecap="round" stroke-linejoin="round"/></g></g><g transform="translate(254 778) scale(0.8333333333333334)"><g transform="translate(0 0)"><path d="M5 3 V9 Q5 12 8 12 V22 M11 3 V9 Q11 12 8 12 M8 3 V9 M19 3 Q14 8 19 13 V22" fill="none" stroke="#64736E" stroke-width="1.8" stroke-linecap="round" stroke-linejoin="round"/></g></g><g transform="translate(323 778) scale(0.8333333333333334)"><g transform="translate(0 0)"><path d="M4 20 V13 M12 20 V5 M20 20 V9" fill="none" stroke="#64736E" stroke-width="1.8" stroke-linecap="round" stroke-linejoin="round"/></g></g><rect x="145" y="834" width="100" height="4" rx="2" fill="#142F2C"/><rect x="24" y="190" width="342" height="237" rx="26" fill="#215E52"/><text x="46" y="221" fill="#D8EB90" font-size="11" font-weight="600"><tspan x="46" dy="0">O TEU TREINO DE HOJE</tspan></text><text x="46" y="263" fill="white" font-size="30" font-weight="700"><tspan x="46" dy="0">Força, com</tspan><tspan x="46" dy="39.0">consistência.</tspan></text><text x="46" y="335" fill="#DCEAE4" font-size="12" font-weight="400"><tspan x="46" dy="0">Plano exemplo · 3 sessões por semana</tspan></text><text x="46" y="361" fill="white" font-size="15" font-weight="500"><tspan x="46" dy="0">45 min    /    5 exercícios</tspan></text><rect x="46" y="382" width="140" height="29" rx="14" fill="#D8EB90"/><text x="59" y="402" fill="#142F2C" font-size="12" font-weight="600"><tspan x="59" dy="0">Ver treino  →</tspan></text><text x="24" y="466" fill="#142F2C" font-size="18" font-weight="600"><tspan x="24" dy="0">A tua semana</tspan></text><text x="256" y="466" fill="#64736E" font-size="11" font-weight="400"><tspan x="256" dy="0">1 feito · 1 parcial</tspan></text><text x="40" y="491" fill="#64736E" font-size="11" font-weight="400"><tspan x="40" dy="0">S</tspan></text><rect x="25" y="501" width="38" height="38" rx="14" fill="#215E52"/><g transform="translate(32 508)"><path d="M5 12 L10 17 L20 6" fill="none" stroke="white" stroke-width="1.8" stroke-linecap="round" stroke-linejoin="round"/></g><text x="89" y="491" fill="#64736E" font-size="11" font-weight="400"><tspan x="89" dy="0">T</tspan></text><rect x="74" y="501" width="38" height="38" rx="14" fill="#F7E3DD"/><path d="M88 515 L98 525 M98 515 L88 525" fill="none" stroke="#A24C3A" stroke-width="2" stroke-linecap="round" stroke-linejoin="round"/><text x="138" y="491" fill="#64736E" font-size="11" font-weight="400"><tspan x="138" dy="0">Q</tspan></text><rect x="123" y="501" width="38" height="38" rx="14" fill="#F8EDCE"/><circle cx="142" cy="520" r="9" fill="none" stroke="#DFC98E" stroke-width="3"/><path d="M142 511 A9 9 0 0 1 142 529" fill="none" stroke="#96701E" stroke-width="3" stroke-linecap="round" stroke-linejoin="round"/><text x="187" y="491" fill="#64736E" font-size="11" font-weight="400"><tspan x="187" dy="0">Q</tspan></text><rect x="172" y="501" width="38" height="38" rx="14" fill="#D8EB90"/><text x="184" y="525" fill="#142F2C" font-size="12" font-weight="600"><tspan x="184" dy="0">10</tspan></text><text x="236" y="491" fill="#64736E" font-size="11" font-weight="400"><tspan x="236" dy="0">S</tspan></text><rect x="221" y="501" width="38" height="38" rx="14" fill="#E8ECE4"/><text x="233" y="525" fill="#142F2C" font-size="12" font-weight="400"><tspan x="233" dy="0">11</tspan></text><text x="285" y="491" fill="#64736E" font-size="11" font-weight="400"><tspan x="285" dy="0">S</tspan></text><rect x="270" y="501" width="38" height="38" rx="14" fill="#E8ECE4"/><text x="282" y="525" fill="#142F2C" font-size="12" font-weight="400"><tspan x="282" dy="0">12</tspan></text><text x="334" y="491" fill="#64736E" font-size="11" font-weight="400"><tspan x="334" dy="0">D</tspan></text><rect x="319" y="501" width="38" height="38" rx="14" fill="#E8ECE4"/><text x="331" y="525" fill="#142F2C" font-size="12" font-weight="400"><tspan x="331" dy="0">13</tspan></text><g transform="translate(24 544)"><path d="M5 12 L10 17 L20 6" fill="none" stroke="#215E52" stroke-width="1.8" stroke-linecap="round" stroke-linejoin="round"/></g><text x="51" y="560" fill="#64736E" font-size="10" font-weight="400"><tspan x="51" dy="0">Feito</tspan></text><path d="M118 548 A6 6 0 0 1 118 560" fill="none" stroke="#96701E" stroke-width="2" stroke-linecap="round" stroke-linejoin="round"/><text x="131" y="560" fill="#64736E" font-size="10" font-weight="400"><tspan x="131" dy="0">Incompleto</tspan></text><path d="M251 550 L259 558 M259 550 L251 558" fill="none" stroke="#A24C3A" stroke-width="2" stroke-linecap="round" stroke-linejoin="round"/><text x="270" y="560" fill="#64736E" font-size="10" font-weight="400"><tspan x="270" dy="0">Não feito</tspan></text><rect x="24" y="577" width="342" height="76" rx="18" fill="white"/><rect x="38" y="592" width="46" height="46" rx="14" fill="#DFEAF7"/><g transform="translate(49 603)"><path d="M2 13 H7 L10 5 L14 20 L17 11 H22" fill="none" stroke="#142F2C" stroke-width="1.8" stroke-linecap="round" stroke-linejoin="round"/></g><text x="98" y="608" fill="#142F2C" font-size="14" font-weight="600"><tspan x="98" dy="0">Caminhada ao fim do dia</tspan></text><text x="98" y="630" fill="#64736E" font-size="12" font-weight="400"><tspan x="98" dy="0">Registo rápido de atividade</tspan></text><text x="340" y="621" fill="#64736E" font-size="23" font-weight="400"><tspan x="340" dy="0">›</tspan></text><rect x="24" y="661" width="342" height="76" rx="18" fill="white"/><rect x="38" y="676" width="46" height="46" rx="14" fill="#F5E3D5"/><g transform="translate(49 687)"><path d="M5 3 V9 Q5 12 8 12 V22 M11 3 V9 Q11 12 8 12 M8 3 V9 M19 3 Q14 8 19 13 V22" fill="none" stroke="#142F2C" stroke-width="1.8" stroke-linecap="round" stroke-linejoin="round"/></g><text x="98" y="692" fill="#142F2C" font-size="14" font-weight="600"><tspan x="98" dy="0">O teu diário alimentar</tspan></text><text x="98" y="714" fill="#64736E" font-size="12" font-weight="400"><tspan x="98" dy="0">Adicionar uma refeição</tspan></text><text x="340" y="705" fill="#64736E" font-size="23" font-weight="400"><tspan x="340" dy="0">›</tspan></text></g><text x="500" y="205" fill="#64736E" font-size="13" font-weight="600"><tspan x="500" dy="0">02 / Planos</tspan></text><g transform="translate(500 225)"><rect x="0" y="0" width="390" height="844" rx="32" fill="#F6F6F1"/><text x="26" y="30" fill="#142F2C" font-size="12" font-weight="600"><tspan x="26" dy="0">9:41</tspan></text><text x="310" y="30" fill="#142F2C" font-size="13" font-weight="400"><tspan x="310" dy="0">●  ▰</tspan></text><rect x="24" y="51" width="34" height="34" rx="11" fill="#215E52"/><path d="M31 61 H45 M38 61 V77" fill="none" stroke="white" stroke-width="3" stroke-linecap="round" stroke-linejoin="round"/><path d="M44 77 V60 H51 M44 68 H50" fill="none" stroke="#D8EB90" stroke-width="3" stroke-linecap="round" stroke-linejoin="round"/><text x="68" y="79" fill="#215E52" font-size="24" font-weight="700"><tspan x="68" dy="0">trainforge</tspan></text><rect x="326" y="52" width="38" height="38" rx="19" fill="#E3E9DF"/><text x="336" y="77" fill="#215E52" font-size="12" font-weight="600"><tspan x="336" dy="0">RG</tspan></text><text x="24" y="130" fill="#142F2C" font-size="28" font-weight="700"><tspan x="24" dy="0">Planos com uma origem.</tspan></text><text x="24" y="160" fill="#64736E" font-size="12" font-weight="400"><tspan x="24" dy="0">Escolhe com contexto. Guarda o que te serve.</tspan></text><rect x="16" y="750" width="358" height="76" rx="26" fill="#FFFFFF"/><g transform="translate(47 778) scale(0.8333333333333334)"><g transform="translate(0 0)"><path d="M3 11 L12 3 L21 11 M5 10 V21 H19 V10 M9 21 V14 H15 V21" fill="none" stroke="#64736E" stroke-width="1.8" stroke-linecap="round" stroke-linejoin="round"/></g></g><rect x="98" y="756" width="56" height="40" rx="18" fill="#D8EB90"/><g transform="translate(112 762) scale(1.1666666666666667)"><g transform="translate(0 0)"><path d="M5 3 H19 V21 H5 Z M9 8 H15 M9 12 H15 M9 16 H13" fill="none" stroke="#215E52" stroke-width="1.8" stroke-linecap="round" stroke-linejoin="round"/></g></g><text x="126" y="813" text-anchor="middle" font-size="11" font-weight="600" fill="#215E52">Planos</text><g transform="translate(185 778) scale(0.8333333333333334)"><g transform="translate(0 0)"><path d="M2 13 H7 L10 5 L14 20 L17 11 H22" fill="none" stroke="#64736E" stroke-width="1.8" stroke-linecap="round" stroke-linejoin="round"/></g></g><g transform="translate(254 778) scale(0.8333333333333334)"><g transform="translate(0 0)"><path d="M5 3 V9 Q5 12 8 12 V22 M11 3 V9 Q11 12 8 12 M8 3 V9 M19 3 Q14 8 19 13 V22" fill="none" stroke="#64736E" stroke-width="1.8" stroke-linecap="round" stroke-linejoin="round"/></g></g><g transform="translate(323 778) scale(0.8333333333333334)"><g transform="translate(0 0)"><path d="M4 20 V13 M12 20 V5 M20 20 V9" fill="none" stroke="#64736E" stroke-width="1.8" stroke-linecap="round" stroke-linejoin="round"/></g></g><rect x="145" y="834" width="100" height="4" rx="2" fill="#142F2C"/><rect x="24" y="188" width="342" height="46" rx="16" fill="white"/><text x="43" y="217" fill="#64736E" font-size="13" font-weight="400"><tspan x="43" dy="0">Pesquisar plano ou modalidade</tspan></text><rect x="24" y="249" width="112" height="32" rx="16" fill="#215E52"/><text x="39" y="270" fill="white" font-size="12" font-weight="600"><tspan x="39" dy="0">Musculação</tspan></text><rect x="145" y="249" width="101" height="32" rx="16" fill="#E8ECE4"/><text x="162" y="270" fill="#142F2C" font-size="12" font-weight="400"><tspan x="162" dy="0">Em casa</tspan></text><text x="269" y="270" fill="#64736E" font-size="12" font-weight="400"><tspan x="269" dy="0">Mobilidade</tspan></text><rect x="24" y="301" width="342" height="221" rx="24" fill="white"/><rect x="40" y="317" width="310" height="66" rx="17" fill="#E3ECE0"/><text x="57" y="344" fill="#215E52" font-size="11" font-weight="700"><tspan x="57" dy="0">BASE DE FORÇA</tspan></text><text x="57" y="369" fill="#142F2C" font-size="14" font-weight="500"><tspan x="57" dy="0">Uma rotina que cabe na semana.</tspan></text><text x="44" y="412" fill="#142F2C" font-size="21" font-weight="700"><tspan x="44" dy="0">Plano de exemplo A</tspan></text><text x="44" y="437" fill="#64736E" font-size="12" font-weight="400"><tspan x="44" dy="0">3 dias / semana · 45 min · Ginásio</tspan></text><text x="44" y="464" fill="#215E52" font-size="13" font-weight="600"><tspan x="44" dy="0">Origem e autoria</tspan></text><text x="44" y="486" fill="#64736E" font-size="12" font-weight="400"><tspan x="44" dy="0">A validar antes da publicação</tspan></text><text x="330" y="478" fill="#215E52" font-size="22" font-weight="400"><tspan x="330" dy="0">↗</tspan></text><rect x="24" y="538" width="342" height="76" rx="18" fill="white"/><rect x="38" y="553" width="46" height="46" rx="14" fill="#EAF0E7"/><g transform="translate(49 564)"><path d="M5 12 H19 M12 5 V19" fill="none" stroke="#142F2C" stroke-width="1.8" stroke-linecap="round" stroke-linejoin="round"/></g><text x="98" y="569" fill="#142F2C" font-size="14" font-weight="600"><tspan x="98" dy="0">Trazer o meu plano</tspan></text><text x="98" y="591" fill="#64736E" font-size="12" font-weight="400"><tspan x="98" dy="0">Registar um plano próprio ou do treinador</tspan></text><text x="340" y="582" fill="#64736E" font-size="23" font-weight="400"><tspan x="340" dy="0">›</tspan></text><rect x="24" y="632" width="342" height="87" rx="18" fill="#E8EEE3"/><text x="42" y="659" fill="#142F2C" font-size="14" font-weight="600"><tspan x="42" dy="0">A confiança começa na fonte.</tspan></text><text x="42" y="681" fill="#64736E" font-size="12" font-weight="400"><tspan x="42" dy="0">Autor, versão e licença acompanham</tspan><tspan x="42" dy="15.6">cada programa aprovado.</tspan></text></g><text x="940" y="205" fill="#64736E" font-size="13" font-weight="600"><tspan x="940" dy="0">03 / Sessão de treino</tspan></text><g transform="translate(940 225)"><rect x="0" y="0" width="390" height="844" rx="32" fill="#F6F6F1"/><text x="26" y="30" fill="#142F2C" font-size="12" font-weight="600"><tspan x="26" dy="0">9:41</tspan></text><text x="310" y="30" fill="#142F2C" font-size="13" font-weight="400"><tspan x="310" dy="0">●  ▰</tspan></text><g transform="translate(24 59)"><path d="M19 12 H4 M10 6 L4 12 L10 18" fill="none" stroke="#142F2C" stroke-width="1.8" stroke-linecap="round" stroke-linejoin="round"/></g><text x="61" y="77" fill="#142F2C" font-size="17" font-weight="600"><tspan x="61" dy="0">Treino A</tspan></text><text x="281" y="77" fill="#215E52" font-size="18" font-weight="600"><tspan x="281" dy="0">12:34</tspan></text><text x="24" y="126" fill="#142F2C" font-size="26" font-weight="700"><tspan x="24" dy="0">Uma série de cada vez.</tspan></text><text x="24" y="155" fill="#64736E" font-size="11" font-weight="600"><tspan x="24" dy="0">EXERCÍCIO 02 / 05 · DEMONSTRAÇÃO</tspan></text><rect x="24" y="180" width="342" height="151" rx="24" fill="#215E52"/><text x="44" y="216" fill="white" font-size="25" font-weight="700"><tspan x="44" dy="0">Remada sentada</tspan></text><text x="44" y="245" fill="#DCEAE4" font-size="13" font-weight="400"><tspan x="44" dy="0">Regista a tua execução</tspan></text><text x="44" y="281" fill="#DCEAE4" font-size="12" font-weight="400"><tspan x="44" dy="0">Vê a técnica e a fonte do exercício</tspan></text><text x="44" y="306" fill="#D8EB90" font-size="12" font-weight="600"><tspan x="44" dy="0">Consultar instruções  ↗</tspan></text><text x="26" y="369" fill="#64736E" font-size="12" font-weight="400"><tspan x="26" dy="0">Série</tspan></text><text x="98" y="369" fill="#64736E" font-size="12" font-weight="400"><tspan x="98" dy="0">Carga / kg</tspan></text><text x="209" y="369" fill="#64736E" font-size="12" font-weight="400"><tspan x="209" dy="0">Repetições</tspan></text><text x="314" y="369" fill="#64736E" font-size="12" font-weight="400"><tspan x="314" dy="0">Feita</tspan></text><rect x="24" y="388" width="342" height="54" rx="14" fill="white"/><text x="40" y="422" fill="#142F2C" font-size="16" font-weight="600"><tspan x="40" dy="0">1</tspan></text><text x="127" y="422" fill="#142F2C" font-size="18" font-weight="500"><tspan x="127" dy="0">20</tspan></text><text x="242" y="422" fill="#142F2C" font-size="18" font-weight="500"><tspan x="242" dy="0">10</tspan></text><rect x="315" y="401" width="28" height="28" rx="9" fill="#215E52"/><g transform="translate(317 403)"><path d="M5 12 L10 17 L20 6" fill="none" stroke="white" stroke-width="1.8" stroke-linecap="round" stroke-linejoin="round"/></g><rect x="24" y="452" width="342" height="54" rx="14" fill="white"/><text x="40" y="486" fill="#142F2C" font-size="16" font-weight="600"><tspan x="40" dy="0">2</tspan></text><text x="127" y="486" fill="#142F2C" font-size="18" font-weight="500"><tspan x="127" dy="0">20</tspan></text><text x="242" y="486" fill="#142F2C" font-size="18" font-weight="500"><tspan x="242" dy="0">10</tspan></text><rect x="315" y="465" width="28" height="28" rx="9" fill="#E8ECE4"/><rect x="24" y="516" width="342" height="54" rx="14" fill="white"/><text x="40" y="550" fill="#142F2C" font-size="16" font-weight="600"><tspan x="40" dy="0">3</tspan></text><text x="127" y="550" fill="#142F2C" font-size="18" font-weight="500"><tspan x="127" dy="0">—</tspan></text><text x="242" y="550" fill="#142F2C" font-size="18" font-weight="500"><tspan x="242" dy="0">—</tspan></text><rect x="315" y="529" width="28" height="28" rx="9" fill="#E8ECE4"/><rect x="24" y="599" width="342" height="61" rx="17" fill="#E8EEE3"/><text x="43" y="625" fill="#142F2C" font-size="13" font-weight="600"><tspan x="43" dy="0">Pausa entre séries</tspan></text><text x="43" y="646" fill="#64736E" font-size="11" font-weight="400"><tspan x="43" dy="0">Temporizador opcional</tspan></text><text x="270" y="640" fill="#215E52" font-size="24" font-weight="600"><tspan x="270" dy="0">01:00</tspan></text><rect x="24" y="681" width="342" height="52" rx="18" fill="#215E52"/><text x="44" y="713" fill="white" font-size="15" font-weight="600"><tspan x="44" dy="0">Registar série</tspan></text><g transform="translate(320 695)"><path d="M5 12 H20 M14 6 L20 12 L14 18" fill="none" stroke="white" stroke-width="1.8" stroke-linecap="round" stroke-linejoin="round"/></g><rect x="24" y="749" width="342" height="50" rx="18" fill="white"/><text x="137" y="780" fill="#215E52" font-size="14" font-weight="600"><tspan x="137" dy="0">Terminar treino</tspan></text><rect x="145" y="827" width="100" height="4" rx="2" fill="#142F2C"/></g><text x="60" y="1085" fill="#64736E" font-size="13" font-weight="600"><tspan x="60" dy="0">04 / Atividade</tspan></text><g transform="translate(60 1105)"><rect x="0" y="0" width="390" height="844" rx="32" fill="#F6F6F1"/><text x="26" y="30" fill="#142F2C" font-size="12" font-weight="600"><tspan x="26" dy="0">9:41</tspan></text><text x="310" y="30" fill="#142F2C" font-size="13" font-weight="400"><tspan x="310" dy="0">●  ▰</tspan></text><rect x="24" y="51" width="34" height="34" rx="11" fill="#215E52"/><path d="M31 61 H45 M38 61 V77" fill="none" stroke="white" stroke-width="3" stroke-linecap="round" stroke-linejoin="round"/><path d="M44 77 V60 H51 M44 68 H50" fill="none" stroke="#D8EB90" stroke-width="3" stroke-linecap="round" stroke-linejoin="round"/><text x="68" y="79" fill="#215E52" font-size="24" font-weight="700"><tspan x="68" dy="0">trainforge</tspan></text><rect x="326" y="52" width="38" height="38" rx="19" fill="#E3E9DF"/><text x="336" y="77" fill="#215E52" font-size="12" font-weight="600"><tspan x="336" dy="0">RG</tspan></text><text x="24" y="130" fill="#142F2C" font-size="28" font-weight="700"><tspan x="24" dy="0">Vai ao teu ritmo.</tspan></text><text x="24" y="160" fill="#64736E" font-size="12" font-weight="400"><tspan x="24" dy="0">Corrida, caminhada e outras atividades</tspan></text><rect x="16" y="750" width="358" height="76" rx="26" fill="#FFFFFF"/><g transform="translate(47 778) scale(0.8333333333333334)"><g transform="translate(0 0)"><path d="M3 11 L12 3 L21 11 M5 10 V21 H19 V10 M9 21 V14 H15 V21" fill="none" stroke="#64736E" stroke-width="1.8" stroke-linecap="round" stroke-linejoin="round"/></g></g><g transform="translate(116 778) scale(0.8333333333333334)"><g transform="translate(0 0)"><path d="M5 3 H19 V21 H5 Z M9 8 H15 M9 12 H15 M9 16 H13" fill="none" stroke="#64736E" stroke-width="1.8" stroke-linecap="round" stroke-linejoin="round"/></g></g><rect x="167" y="756" width="56" height="40" rx="18" fill="#D8EB90"/><g transform="translate(181 762) scale(1.1666666666666667)"><g transform="translate(0 0)"><path d="M2 13 H7 L10 5 L14 20 L17 11 H22" fill="none" stroke="#215E52" stroke-width="1.8" stroke-linecap="round" stroke-linejoin="round"/></g></g><text x="195" y="813" text-anchor="middle" font-size="11" font-weight="600" fill="#215E52">Atividade</text><g transform="translate(254 778) scale(0.8333333333333334)"><g transform="translate(0 0)"><path d="M5 3 V9 Q5 12 8 12 V22 M11 3 V9 Q11 12 8 12 M8 3 V9 M19 3 Q14 8 19 13 V22" fill="none" stroke="#64736E" stroke-width="1.8" stroke-linecap="round" stroke-linejoin="round"/></g></g><g transform="translate(323 778) scale(0.8333333333333334)"><g transform="translate(0 0)"><path d="M4 20 V13 M12 20 V5 M20 20 V9" fill="none" stroke="#64736E" stroke-width="1.8" stroke-linecap="round" stroke-linejoin="round"/></g></g><rect x="145" y="834" width="100" height="4" rx="2" fill="#142F2C"/><rect x="24" y="190" width="342" height="243" rx="25" fill="#DFEAF7"/><path d="M35 220 C120 185,230 250,355 205" fill="none" stroke="#F6FAFE" stroke-width="12" stroke-linecap="round" stroke-linejoin="round"/><path d="M35 270 C120 235,230 300,355 255" fill="none" stroke="#F6FAFE" stroke-width="12" stroke-linecap="round" stroke-linejoin="round"/><path d="M35 320 C120 285,230 350,355 305" fill="none" stroke="#F6FAFE" stroke-width="12" stroke-linecap="round" stroke-linejoin="round"/><path d="M35 370 C120 335,230 400,355 355" fill="none" stroke="#F6FAFE" stroke-width="12" stroke-linecap="round" stroke-linejoin="round"/><path d="M35 415 C120 380,230 445,355 400" fill="none" stroke="#F6FAFE" stroke-width="12" stroke-linecap="round" stroke-linejoin="round"/><path d="M66 200 L46 422" fill="none" stroke="#F6FAFE" stroke-width="7" stroke-linecap="round" stroke-linejoin="round"/><path d="M157 200 L137 422" fill="none" stroke="#F6FAFE" stroke-width="7" stroke-linecap="round" stroke-linejoin="round"/><path d="M265 200 L245 422" fill="none" stroke="#F6FAFE" stroke-width="7" stroke-linecap="round" stroke-linejoin="round"/><path d="M330 200 L310 422" fill="none" stroke="#F6FAFE" stroke-width="7" stroke-linecap="round" stroke-linejoin="round"/><path d="M87 365 C65 300,139 321,151 276 S243 229,277 270 S247 351,301 370" fill="none" stroke="#215E52" stroke-width="5" stroke-linecap="round" stroke-linejoin="round"/><circle cx="87" cy="365" r="8" fill="#215E52"/><circle cx="301" cy="370" r="8" fill="#D8EB90" stroke="#215E52" stroke-width="3"/><rect x="43" y="207" width="161" height="28" rx="14" fill="white"/><text x="56" y="226" fill="#215E52" font-size="9" font-weight="600"><tspan x="56" dy="0">PERCURSO ILUSTRATIVO</tspan></text><text x="25" y="488" fill="#142F2C" font-size="48" font-weight="700"><tspan x="25" dy="0">3,20</tspan></text><text x="139" y="488" fill="#64736E" font-size="20" font-weight="400"><tspan x="139" dy="0">km</tspan></text><text x="26" y="513" fill="#64736E" font-size="13" font-weight="400"><tspan x="26" dy="0">Distância registada</tspan></text><rect x="24" y="538" width="164" height="89" rx="20" fill="white"/><text x="41" y="568" fill="#64736E" font-size="12" font-weight="400"><tspan x="41" dy="0">Duração</tspan></text><text x="41" y="600" fill="#142F2C" font-size="26" font-weight="600"><tspan x="41" dy="0">24:18</tspan></text><rect x="202" y="538" width="164" height="89" rx="20" fill="white"/><text x="219" y="568" fill="#64736E" font-size="12" font-weight="400"><tspan x="219" dy="0">Ritmo médio</tspan></text><text x="219" y="600" fill="#142F2C" font-size="24" font-weight="600"><tspan x="219" dy="0">7:36 /km</tspan></text><rect x="24" y="648" width="342" height="52" rx="18" fill="#215E52"/><text x="44" y="680" fill="white" font-size="15" font-weight="600"><tspan x="44" dy="0">Registar atividade</tspan></text><g transform="translate(320 662)"><path d="M5 12 H20 M14 6 L20 12 L14 18" fill="none" stroke="white" stroke-width="1.8" stroke-linecap="round" stroke-linejoin="round"/></g><text x="43" y="727" fill="#64736E" font-size="12" font-weight="400"><tspan x="43" dy="0">Também podes adicionar sem localização.</tspan></text></g><text x="500" y="1085" fill="#64736E" font-size="13" font-weight="600"><tspan x="500" dy="0">05 / Alimentação</tspan></text><g transform="translate(500 1105)"><rect x="0" y="0" width="390" height="844" rx="32" fill="#F6F6F1"/><text x="26" y="30" fill="#142F2C" font-size="12" font-weight="600"><tspan x="26" dy="0">9:41</tspan></text><text x="310" y="30" fill="#142F2C" font-size="13" font-weight="400"><tspan x="310" dy="0">●  ▰</tspan></text><rect x="24" y="51" width="34" height="34" rx="11" fill="#215E52"/><path d="M31 61 H45 M38 61 V77" fill="none" stroke="white" stroke-width="3" stroke-linecap="round" stroke-linejoin="round"/><path d="M44 77 V60 H51 M44 68 H50" fill="none" stroke="#D8EB90" stroke-width="3" stroke-linecap="round" stroke-linejoin="round"/><text x="68" y="79" fill="#215E52" font-size="24" font-weight="700"><tspan x="68" dy="0">trainforge</tspan></text><rect x="326" y="52" width="38" height="38" rx="19" fill="#E3E9DF"/><text x="336" y="77" fill="#215E52" font-size="12" font-weight="600"><tspan x="336" dy="0">RG</tspan></text><text x="24" y="130" fill="#142F2C" font-size="28" font-weight="700"><tspan x="24" dy="0">O teu diário alimentar.</tspan></text><text x="24" y="160" fill="#64736E" font-size="12" font-weight="400"><tspan x="24" dy="0">Hoje · Regista sem complicar</tspan></text><rect x="16" y="750" width="358" height="76" rx="26" fill="#FFFFFF"/><g transform="translate(47 778) scale(0.8333333333333334)"><g transform="translate(0 0)"><path d="M3 11 L12 3 L21 11 M5 10 V21 H19 V10 M9 21 V14 H15 V21" fill="none" stroke="#64736E" stroke-width="1.8" stroke-linecap="round" stroke-linejoin="round"/></g></g><g transform="translate(116 778) scale(0.8333333333333334)"><g transform="translate(0 0)"><path d="M5 3 H19 V21 H5 Z M9 8 H15 M9 12 H15 M9 16 H13" fill="none" stroke="#64736E" stroke-width="1.8" stroke-linecap="round" stroke-linejoin="round"/></g></g><g transform="translate(185 778) scale(0.8333333333333334)"><g transform="translate(0 0)"><path d="M2 13 H7 L10 5 L14 20 L17 11 H22" fill="none" stroke="#64736E" stroke-width="1.8" stroke-linecap="round" stroke-linejoin="round"/></g></g><rect x="236" y="756" width="56" height="40" rx="18" fill="#D8EB90"/><g transform="translate(250 762) scale(1.1666666666666667)"><g transform="translate(0 0)"><path d="M5 3 V9 Q5 12 8 12 V22 M11 3 V9 Q11 12 8 12 M8 3 V9 M19 3 Q14 8 19 13 V22" fill="none" stroke="#215E52" stroke-width="1.8" stroke-linecap="round" stroke-linejoin="round"/></g></g><text x="264" y="813" text-anchor="middle" font-size="11" font-weight="600" fill="#215E52">Diário</text><g transform="translate(323 778) scale(0.8333333333333334)"><g transform="translate(0 0)"><path d="M4 20 V13 M12 20 V5 M20 20 V9" fill="none" stroke="#64736E" stroke-width="1.8" stroke-linecap="round" stroke-linejoin="round"/></g></g><rect x="145" y="834" width="100" height="4" rx="2" fill="#142F2C"/><rect x="24" y="190" width="342" height="190" rx="25" fill="#F5E3D5"/><text x="45" y="225" fill="#714C34" font-size="11" font-weight="600"><tspan x="45" dy="0">ENERGIA REGISTADA</tspan></text><text x="44" y="279" fill="#142F2C" font-size="46" font-weight="700"><tspan x="44" dy="0">1 480</tspan></text><text x="190" y="279" fill="#714C34" font-size="17" font-weight="400"><tspan x="190" dy="0">kcal</tspan></text><text x="45" y="310" fill="#714C34" font-size="12" font-weight="400"><tspan x="45" dy="0">Estimativa das refeições adicionadas</tspan></text><text x="45" y="346" fill="#714C34" font-size="10" font-weight="400"><tspan x="45" dy="0">Proteína 82 g   ·   Hidratos 180 g   ·   Gordura 48 g</tspan></text><rect x="24" y="399" width="342" height="76" rx="18" fill="white"/><rect x="38" y="414" width="46" height="46" rx="14" fill="#F5E3D5"/><g transform="translate(49 425)"><path d="M5 3 V9 Q5 12 8 12 V22 M11 3 V9 Q11 12 8 12 M8 3 V9 M19 3 Q14 8 19 13 V22" fill="none" stroke="#142F2C" stroke-width="1.8" stroke-linecap="round" stroke-linejoin="round"/></g><text x="98" y="430" fill="#142F2C" font-size="14" font-weight="600"><tspan x="98" dy="0">Pequeno-almoço</tspan></text><text x="98" y="452" fill="#64736E" font-size="12" font-weight="400"><tspan x="98" dy="0">Iogurte, aveia e fruta · 380 kcal</tspan></text><text x="340" y="443" fill="#64736E" font-size="23" font-weight="400"><tspan x="340" dy="0">›</tspan></text><rect x="24" y="489" width="342" height="76" rx="18" fill="white"/><rect x="38" y="504" width="46" height="46" rx="14" fill="#F5E3D5"/><g transform="translate(49 515)"><path d="M5 3 V9 Q5 12 8 12 V22 M11 3 V9 Q11 12 8 12 M8 3 V9 M19 3 Q14 8 19 13 V22" fill="none" stroke="#142F2C" stroke-width="1.8" stroke-linecap="round" stroke-linejoin="round"/></g><text x="98" y="520" fill="#142F2C" font-size="14" font-weight="600"><tspan x="98" dy="0">Almoço</tspan></text><text x="98" y="542" fill="#64736E" font-size="12" font-weight="400"><tspan x="98" dy="0">Arroz, legumes e frango · 640 kcal</tspan></text><text x="340" y="533" fill="#64736E" font-size="23" font-weight="400"><tspan x="340" dy="0">›</tspan></text><text x="28" y="598" fill="#64736E" font-size="12" font-weight="400"><tspan x="28" dy="0">Outros registos: 460 kcal</tspan></text><rect x="24" y="622" width="342" height="52" rx="18" fill="#215E52"/><text x="44" y="654" fill="white" font-size="15" font-weight="600"><tspan x="44" dy="0">Adicionar alimento</tspan></text><g transform="translate(320 636)"><path d="M5 12 H20 M14 6 L20 12 L14 18" fill="none" stroke="white" stroke-width="1.8" stroke-linecap="round" stroke-linejoin="round"/></g><text x="38" y="709" fill="#64736E" font-size="12" font-weight="400"><tspan x="38" dy="0">As porções e a fonte alteram a estimativa.</tspan></text></g><text x="940" y="1085" fill="#64736E" font-size="13" font-weight="600"><tspan x="940" dy="0">06 / Evolução</tspan></text><g transform="translate(940 1105)"><rect x="0" y="0" width="390" height="844" rx="32" fill="#F6F6F1"/><text x="26" y="30" fill="#142F2C" font-size="12" font-weight="600"><tspan x="26" dy="0">9:41</tspan></text><text x="310" y="30" fill="#142F2C" font-size="13" font-weight="400"><tspan x="310" dy="0">●  ▰</tspan></text><rect x="24" y="51" width="34" height="34" rx="11" fill="#215E52"/><path d="M31 61 H45 M38 61 V77" fill="none" stroke="white" stroke-width="3" stroke-linecap="round" stroke-linejoin="round"/><path d="M44 77 V60 H51 M44 68 H50" fill="none" stroke="#D8EB90" stroke-width="3" stroke-linecap="round" stroke-linejoin="round"/><text x="68" y="79" fill="#215E52" font-size="24" font-weight="700"><tspan x="68" dy="0">trainforge</tspan></text><rect x="326" y="52" width="38" height="38" rx="19" fill="#E3E9DF"/><text x="336" y="77" fill="#215E52" font-size="12" font-weight="600"><tspan x="336" dy="0">RG</tspan></text><text x="24" y="130" fill="#142F2C" font-size="28" font-weight="700"><tspan x="24" dy="0">Cada semana conta.</tspan></text><text x="24" y="160" fill="#64736E" font-size="12" font-weight="400"><tspan x="24" dy="0">Evolução · Últimos 7 dias</tspan></text><rect x="16" y="750" width="358" height="76" rx="26" fill="#FFFFFF"/><g transform="translate(47 778) scale(0.8333333333333334)"><g transform="translate(0 0)"><path d="M3 11 L12 3 L21 11 M5 10 V21 H19 V10 M9 21 V14 H15 V21" fill="none" stroke="#64736E" stroke-width="1.8" stroke-linecap="round" stroke-linejoin="round"/></g></g><g transform="translate(116 778) scale(0.8333333333333334)"><g transform="translate(0 0)"><path d="M5 3 H19 V21 H5 Z M9 8 H15 M9 12 H15 M9 16 H13" fill="none" stroke="#64736E" stroke-width="1.8" stroke-linecap="round" stroke-linejoin="round"/></g></g><g transform="translate(185 778) scale(0.8333333333333334)"><g transform="translate(0 0)"><path d="M2 13 H7 L10 5 L14 20 L17 11 H22" fill="none" stroke="#64736E" stroke-width="1.8" stroke-linecap="round" stroke-linejoin="round"/></g></g><g transform="translate(254 778) scale(0.8333333333333334)"><g transform="translate(0 0)"><path d="M5 3 V9 Q5 12 8 12 V22 M11 3 V9 Q11 12 8 12 M8 3 V9 M19 3 Q14 8 19 13 V22" fill="none" stroke="#64736E" stroke-width="1.8" stroke-linecap="round" stroke-linejoin="round"/></g></g><rect x="305" y="756" width="56" height="40" rx="18" fill="#D8EB90"/><g transform="translate(319 762) scale(1.1666666666666667)"><g transform="translate(0 0)"><path d="M4 20 V13 M12 20 V5 M20 20 V9" fill="none" stroke="#215E52" stroke-width="1.8" stroke-linecap="round" stroke-linejoin="round"/></g></g><text x="333" y="813" text-anchor="middle" font-size="11" font-weight="600" fill="#215E52">Evolução</text><rect x="145" y="834" width="100" height="4" rx="2" fill="#142F2C"/><rect x="24" y="190" width="342" height="272" rx="25" fill="white"/><text x="44" y="225" fill="#64736E" font-size="11" font-weight="600"><tspan x="44" dy="0">TEMPO EM ATIVIDADE</tspan></text><text x="43" y="271" fill="#142F2C" font-size="44" font-weight="700"><tspan x="43" dy="0">135</tspan></text><text x="129" y="271" fill="#64736E" font-size="17" font-weight="400"><tspan x="129" dy="0">min</tspan></text><text x="256" y="267" fill="#215E52" font-size="12" font-weight="600"><tspan x="256" dy="0">3 sessões</tspan></text><path d="M49 411 H344" fill="none" stroke="#E6EAE3" stroke-width="1" stroke-linecap="round" stroke-linejoin="round"/><rect x="47" y="314" width="23" height="96" rx="7" fill="#215E52"/><text x="53" y="437" fill="#64736E" font-size="11" font-weight="400"><tspan x="53" dy="0">S</tspan></text><rect x="91" y="405" width="23" height="5" rx="7" fill="#E6EAE3"/><text x="97" y="437" fill="#64736E" font-size="11" font-weight="400"><tspan x="97" dy="0">T</tspan></text><rect x="135" y="290" width="23" height="120" rx="7" fill="#215E52"/><text x="141" y="437" fill="#64736E" font-size="11" font-weight="400"><tspan x="141" dy="0">Q</tspan></text><rect x="179" y="405" width="23" height="5" rx="7" fill="#E6EAE3"/><text x="185" y="437" fill="#64736E" font-size="11" font-weight="400"><tspan x="185" dy="0">Q</tspan></text><rect x="223" y="302" width="23" height="108" rx="7" fill="#215E52"/><text x="229" y="437" fill="#64736E" font-size="11" font-weight="400"><tspan x="229" dy="0">S</tspan></text><rect x="267" y="405" width="23" height="5" rx="7" fill="#E6EAE3"/><text x="273" y="437" fill="#64736E" font-size="11" font-weight="400"><tspan x="273" dy="0">S</tspan></text><rect x="311" y="405" width="23" height="5" rx="7" fill="#E6EAE3"/><text x="317" y="437" fill="#64736E" font-size="11" font-weight="400"><tspan x="317" dy="0">D</tspan></text><rect x="24" y="481" width="164" height="92" rx="20" fill="#E8EEE3"/><text x="42" y="514" fill="#64736E" font-size="12" font-weight="400"><tspan x="42" dy="0">Treinos</tspan></text><text x="42" y="548" fill="#142F2C" font-size="25" font-weight="600"><tspan x="42" dy="0">3 feitos</tspan></text><rect x="202" y="481" width="164" height="92" rx="20" fill="#DFEAF7"/><text x="220" y="514" fill="#64736E" font-size="12" font-weight="400"><tspan x="220" dy="0">Atividade</tspan></text><text x="220" y="548" fill="#142F2C" font-size="25" font-weight="600"><tspan x="220" dy="0">3,2 km</tspan></text><rect x="24" y="592" width="342" height="76" rx="18" fill="white"/><rect x="38" y="607" width="46" height="46" rx="14" fill="#EAF0E7"/><g transform="translate(49 618)"><path d="M4 20 V13 M12 20 V5 M20 20 V9" fill="none" stroke="#142F2C" stroke-width="1.8" stroke-linecap="round" stroke-linejoin="round"/></g><text x="98" y="623" fill="#142F2C" font-size="14" font-weight="600"><tspan x="98" dy="0">Histórico completo</tspan></text><text x="98" y="645" fill="#64736E" font-size="12" font-weight="400"><tspan x="98" dy="0">Treinos e atividades, mesmo ao mudar plano</tspan></text><text x="340" y="636" fill="#64736E" font-size="23" font-weight="400"><tspan x="340" dy="0">›</tspan></text><text x="35" y="715" fill="#64736E" font-size="12" font-weight="400"><tspan x="35" dy="0">O descanso também faz parte da rotina.</tspan></text></g><text x="60" y="1965" fill="#64736E" font-size="13" font-weight="600"><tspan x="60" dy="0">07 / Perfil</tspan></text><g transform="translate(60 1985)"><rect x="0" y="0" width="390" height="844" rx="32" fill="#F6F6F1"/><text x="26" y="30" fill="#142F2C" font-size="12" font-weight="600"><tspan x="26" dy="0">9:41</tspan></text><rect x="24" y="51" width="34" height="34" rx="11" fill="#215E52"/><path d="M31 61 H45 M38 61 V77" fill="none" stroke="white" stroke-width="3" stroke-linecap="round" stroke-linejoin="round"/><path d="M44 77 V60 H51 M44 68 H50" fill="none" stroke="#D8EB90" stroke-width="3" stroke-linecap="round" stroke-linejoin="round"/><text x="68" y="79" fill="#215E52" font-size="24" font-weight="700"><tspan x="68" dy="0">trainforge</tspan></text><g transform="translate(24 108)"><path d="M19 12 H4 M10 6 L4 12 L10 18" fill="none" stroke="#142F2C" stroke-width="1.8" stroke-linecap="round" stroke-linejoin="round"/></g><text x="62" y="126" fill="#142F2C" font-size="25" font-weight="700"><tspan x="62" dy="0">O teu perfil</tspan></text><rect x="24" y="151" width="342" height="184" rx="24" fill="#E8EEE3"/><rect x="155" y="170" width="80" height="80" rx="40" fill="#215E52"/><text x="174" y="220" fill="white" font-size="28" font-weight="600"><tspan x="174" dy="0">RG</tspan></text><rect x="216" y="225" width="25" height="25" rx="12" fill="#D8EB90"/><path d="M223 241 L224 235 L233 227 L237 231 L228 239 Z" fill="none" stroke="#215E52" stroke-width="1.4" stroke-linecap="round" stroke-linejoin="round"/><text x="195" y="279" text-anchor="middle" font-size="22" font-weight="700" fill="#142F2C">Richard Gois</text><text x="195" y="301" text-anchor="middle" font-size="12" fill="#64736E">Perfil de demonstração</text><text x="195" y="320" text-anchor="middle" font-size="12" font-weight="600" fill="#215E52">Editar perfil</text><text x="26" y="365" fill="#64736E" font-size="11" font-weight="600"><tspan x="26" dy="0">CONTA E PREFERÊNCIAS</tspan></text><rect x="24" y="379" width="342" height="192" rx="20" fill="white"/><text x="42" y="408" fill="#142F2C" font-size="13" font-weight="500"><tspan x="42" dy="0">Dados pessoais</tspan></text><text x="337" y="409" fill="#64736E" font-size="21" font-weight="400"><tspan x="337" dy="0">›</tspan></text><path d="M42 427 H348" fill="none" stroke="#EDF0E9" stroke-width="1" stroke-linecap="round" stroke-linejoin="round"/><text x="42" y="456" fill="#142F2C" font-size="13" font-weight="500"><tspan x="42" dy="0">Objetivos e preferências de treino</tspan></text><text x="337" y="457" fill="#64736E" font-size="21" font-weight="400"><tspan x="337" dy="0">›</tspan></text><path d="M42 475 H348" fill="none" stroke="#EDF0E9" stroke-width="1" stroke-linecap="round" stroke-linejoin="round"/><text x="42" y="504" fill="#142F2C" font-size="13" font-weight="500"><tspan x="42" dy="0">Notificações</tspan></text><text x="337" y="505" fill="#64736E" font-size="21" font-weight="400"><tspan x="337" dy="0">›</tspan></text><path d="M42 523 H348" fill="none" stroke="#EDF0E9" stroke-width="1" stroke-linecap="round" stroke-linejoin="round"/><text x="42" y="552" fill="#142F2C" font-size="13" font-weight="500"><tspan x="42" dy="0">Idioma e unidades</tspan></text><text x="337" y="553" fill="#64736E" font-size="21" font-weight="400"><tspan x="337" dy="0">›</tspan></text><text x="26" y="600" fill="#64736E" font-size="11" font-weight="600"><tspan x="26" dy="0">PRIVACIDADE E APOIO</tspan></text><rect x="24" y="614" width="342" height="96" rx="20" fill="white"/><text x="42" y="643" fill="#142F2C" font-size="13" font-weight="500"><tspan x="42" dy="0">Privacidade e os meus dados</tspan></text><text x="337" y="644" fill="#64736E" font-size="21" font-weight="400"><tspan x="337" dy="0">›</tspan></text><path d="M42 662 H348" fill="none" stroke="#EDF0E9" stroke-width="1" stroke-linecap="round" stroke-linejoin="round"/><text x="42" y="691" fill="#142F2C" font-size="13" font-weight="500"><tspan x="42" dy="0">Ajuda e feedback</tspan></text><text x="337" y="692" fill="#64736E" font-size="21" font-weight="400"><tspan x="337" dy="0">›</tspan></text><rect x="24" y="729" width="342" height="44" rx="16" fill="white"/><text x="195" y="757" text-anchor="middle" font-size="13" font-weight="600" fill="#215E52">Terminar sessão</text><text x="195" y="801" text-anchor="middle" font-size="11" fill="#64736E">TrainForge · Esboço v0.2</text><rect x="145" y="834" width="100" height="4" rx="2" fill="#142F2C"/></g><text x="61" y="2875" fill="#64736E" font-size="13" font-weight="400"><tspan x="61" dy="0">Visão futura: funcionalidades ainda não implementadas. Autoria e licenças de conteúdo por validar.</tspan></text></svg>