<svg xmlns="http://www.w3.org/2000/svg" width="390" height="844" viewBox="0 0 390 844"><rect x="0" y="0" width="390" height="844" rx="32" fill="#F6F6F1"/><text x="26" y="30" font-family="Inter,Segoe UI,sans-serif" font-size="12" font-weight="600" fill="#142F2C">9:41</text><rect x="24" y="51" width="34" height="34" rx="11" fill="#215E52"/><path d="M31 61 H45 M38 61 V77" fill="none" stroke="white" stroke-width="3" stroke-linecap="round" stroke-linejoin="round"/><path d="M44 77 V60 H51 M44 68 H50" fill="none" stroke="#D8EB90" stroke-width="3" stroke-linecap="round" stroke-linejoin="round"/><text x="68" y="79" font-family="Inter,Segoe UI,sans-serif" font-size="24" font-weight="700" fill="#215E52">trainforge</text><text x="24" y="130" font-family="Inter,Segoe UI,sans-serif" font-size="26" font-weight="700" fill="#142F2C">Uma rotina que funciona.</text><text x="24" y="159" font-family="Inter,Segoe UI,sans-serif" font-size="11" font-weight="400" fill="#64736E">ROTINA · CONFIGURAÇÃO INDEPENDENTE</text><rect x="145" y="834" width="100" height="4" rx="2" fill="#142F2C"/><text x="26" y="196" font-family="Inter,Segoe UI,sans-serif" font-size="12" font-weight="500" fill="#64736E">Nome da rotina *</text><rect x="24" y="208" width="342" height="44" rx="14" fill="white"/><text x="40" y="236" font-family="Inter,Segoe UI,sans-serif" font-size="12" font-weight="400" fill="#142F2C">Caminhada ao fim do dia</text><text x="26" y="275" font-family="Inter,Segoe UI,sans-serif" font-size="12" font-weight="500" fill="#64736E">Atividade *</text><rect x="24" y="287" width="342" height="44" rx="14" fill="#E8EEE3"/><text x="40" y="315" font-family="Inter,Segoe UI,sans-serif" font-size="12" font-weight="500" fill="#142F2C">Caminhada ✓ · Corrida · Treino · Outra</text><text x="26" y="354" font-family="Inter,Segoe UI,sans-serif" font-size="12" font-weight="500" fill="#64736E">Dias *</text><rect x="24" y="366" width="342" height="44" rx="14" fill="#E8EEE3"/><text x="40" y="394" font-family="Inter,Segoe UI,sans-serif" font-size="12" font-weight="500" fill="#142F2C">S · T ✓ · Q · Q ✓ · S · S ✓ · D</text><text x="26" y="433" font-family="Inter,Segoe UI,sans-serif" font-size="12" font-weight="500" fill="#64736E">Horário · opcional</text><rect x="24" y="445" width="342" height="44" rx="14" fill="white"/><text x="40" y="473" font-family="Inter,Segoe UI,sans-serif" font-size="12" font-weight="400" fill="#142F2C">18:30</text><text x="26" y="512" font-family="Inter,Segoe UI,sans-serif" font-size="12" font-weight="500" fill="#64736E">Lembrete · opcional</text><rect x="24" y="524" width="342" height="44" rx="14" fill="#E8EEE3"/><text x="40" y="552" font-family="Inter,Segoe UI,sans-serif" font-size="12" font-weight="500" fill="#142F2C">Desativado ✓ · Ativar</text><g><rect x="24" y="580" width="342" height="48" rx="16" fill="#215E52"/><text x="195" y="610" text-anchor="middle" font-family="Inter,Segoe UI,sans-serif" font-size="13" font-weight="600" fill="white">Guardar a minha rotina</text></g><g><text x="195" y="658" text-anchor="middle" font-family="Inter,Segoe UI,sans-serif" font-size="13" font-weight="600" fill="#215E52">Configurar rotina depois</text></g></svg>