<svg xmlns="http://www.w3.org/2000/svg" width="390" height="844" viewBox="0 0 390 844" font-family="Inter, Segoe UI, sans-serif"><rect x="0" y="0" width="390" height="844" rx="32" fill="#F6F6F1"/><text x="26" y="30" fill="#142F2C" font-size="12" font-weight="600"><tspan x="26" dy="0">9:41</tspan></text><text x="310" y="30" fill="#142F2C" font-size="13" font-weight="400"><tspan x="310" dy="0">●  ▰</tspan></text><rect x="24" y="51" width="34" height="34" rx="11" fill="#215E52"/><path d="M31 61 H45 M38 61 V77" fill="none" stroke="white" stroke-width="3" stroke-linecap="round" stroke-linejoin="round"/><path d="M44 77 V60 H51 M44 68 H50" fill="none" stroke="#D8EB90" stroke-width="3" stroke-linecap="round" stroke-linejoin="round"/><text x="68" y="79" fill="#215E52" font-size="24" font-weight="700"><tspan x="68" dy="0">trainforge</tspan></text><rect x="326" y="52" width="38" height="38" rx="19" fill="#E3E9DF"/><text x="336" y="77" fill="#215E52" font-size="12" font-weight="600"><tspan x="336" dy="0">RG</tspan></text><text x="24" y="130" fill="#142F2C" font-size="28" font-weight="700"><tspan x="24" dy="0">Planos com uma origem.</tspan></text><text x="24" y="160" fill="#64736E" font-size="12" font-weight="400"><tspan x="24" dy="0">Escolhe com contexto. Guarda o que te serve.</tspan></text><rect x="16" y="750" width="358" height="76" rx="26" fill="#FFFFFF"/><g transform="translate(47 778) scale(0.8333333333333334)"><g transform="translate(0 0)"><path d="M3 11 L12 3 L21 11 M5 10 V21 H19 V10 M9 21 V14 H15 V21" fill="none" stroke="#64736E" stroke-width="1.8" stroke-linecap="round" stroke-linejoin="round"/></g></g><rect x="98" y="756" width="56" height="40" rx="18" fill="#D8EB90"/><g transform="translate(112 762) scale(1.1666666666666667)"><g transform="translate(0 0)"><path d="M5 3 H19 V21 H5 Z M9 8 H15 M9 12 H15 M9 16 H13" fill="none" stroke="#215E52" stroke-width="1.8" stroke-linecap="round" stroke-linejoin="round"/></g></g><text x="126" y="813" text-anchor="middle" font-size="11" font-weight="600" fill="#215E52">Planos</text><g transform="translate(185 778) scale(0.8333333333333334)"><g transform="translate(0 0)"><path d="M2 13 H7 L10 5 L14 20 L17 11 H22" fill="none" stroke="#64736E" stroke-width="1.8" stroke-linecap="round" stroke-linejoin="round"/></g></g><g transform="translate(254 778) scale(0.8333333333333334)"><g transform="translate(0 0)"><path d="M5 3 V9 Q5 12 8 12 V22 M11 3 V9 Q11 12 8 12 M8 3 V9 M19 3 Q14 8 19 13 V22" fill="none" stroke="#64736E" stroke-width="1.8" stroke-linecap="round" stroke-linejoin="round"/></g></g><g transform="translate(323 778) scale(0.8333333333333334)"><g transform="translate(0 0)"><path d="M4 20 V13 M12 20 V5 M20 20 V9" fill="none" stroke="#64736E" stroke-width="1.8" stroke-linecap="round" stroke-linejoin="round"/></g></g><rect x="145" y="834" width="100" height="4" rx="2" fill="#142F2C"/><rect x="24" y="188" width="342" height="46" rx="16" fill="white"/><text x="43" y="217" fill="#64736E" font-size="13" font-weight="400"><tspan x="43" dy="0">Pesquisar plano ou modalidade</tspan></text><rect x="24" y="249" width="112" height="32" rx="16" fill="#215E52"/><text x="39" y="270" fill="white" font-size="12" font-weight="600"><tspan x="39" dy="0">Musculação</tspan></text><rect x="145" y="249" width="101" height="32" rx="16" fill="#E8ECE4"/><text x="162" y="270" fill="#142F2C" font-size="12" font-weight="400"><tspan x="162" dy="0">Em casa</tspan></text><text x="269" y="270" fill="#64736E" font-size="12" font-weight="400"><tspan x="269" dy="0">Mobilidade</tspan></text><rect x="24" y="301" width="342" height="221" rx="24" fill="white"/><rect x="40" y="317" width="310" height="66" rx="17" fill="#E3ECE0"/><text x="57" y="344" fill="#215E52" font-size="11" font-weight="700"><tspan x="57" dy="0">BASE DE FORÇA</tspan></text><text x="57" y="369" fill="#142F2C" font-size="14" font-weight="500"><tspan x="57" dy="0">Uma rotina que cabe na semana.</tspan></text><text x="44" y="412" fill="#142F2C" font-size="21" font-weight="700"><tspan x="44" dy="0">Plano de exemplo A</tspan></text><text x="44" y="437" fill="#64736E" font-size="12" font-weight="400"><tspan x="44" dy="0">3 dias / semana · 45 min · Ginásio</tspan></text><text x="44" y="464" fill="#215E52" font-size="13" font-weight="600"><tspan x="44" dy="0">Origem e autoria</tspan></text><text x="44" y="486" fill="#64736E" font-size="12" font-weight="400"><tspan x="44" dy="0">A validar antes da publicação</tspan></text><text x="330" y="478" fill="#215E52" font-size="22" font-weight="400"><tspan x="330" dy="0">↗</tspan></text><rect x="24" y="538" width="342" height="76" rx="18" fill="white"/><rect x="38" y="553" width="46" height="46" rx="14" fill="#EAF0E7"/><g transform="translate(49 564)"><path d="M5 12 H19 M12 5 V19" fill="none" stroke="#142F2C" stroke-width="1.8" stroke-linecap="round" stroke-linejoin="round"/></g><text x="98" y="569" fill="#142F2C" font-size="14" font-weight="600"><tspan x="98" dy="0">Trazer o meu plano</tspan></text><text x="98" y="591" fill="#64736E" font-size="12" font-weight="400"><tspan x="98" dy="0">Registar um plano próprio ou do treinador</tspan></text><text x="340" y="582" fill="#64736E" font-size="23" font-weight="400"><tspan x="340" dy="0">›</tspan></text><rect x="24" y="632" width="342" height="87" rx="18" fill="#E8EEE3"/><text x="42" y="659" fill="#142F2C" font-size="14" font-weight="600"><tspan x="42" dy="0">A confiança começa na fonte.</tspan></text><text x="42" y="681" fill="#64736E" font-size="12" font-weight="400"><tspan x="42" dy="0">Autor, versão e licença acompanham</tspan><tspan x="42" dy="15.6">cada programa aprovado.</tspan></text><rect x="18" y="294" width="354" height="439" rx="8" fill="#F6F6F1"/><rect x="24" y="301" width="342" height="221" rx="18" fill="#E5EBE2"/><rect x="24" y="538" width="342" height="76" rx="18" fill="#E5EBE2"/><rect x="24" y="632" width="342" height="87" rx="18" fill="#E5EBE2"/><text x="28" y="731" font-family="Inter,Segoe UI,sans-serif" font-size="11" font-weight="400" fill="#64736E">A carregar dados…</text></svg>